<?xml version="1.0" encoding="utf-8" standalone="no"?>
<!DOCTYPE svg PUBLIC "-//W3C//DTD SVG 1.1//EN"
  "http://www.w3.org/Graphics/SVG/1.1/DTD/svg11.dtd">
<svg xmlns:xlink="http://www.w3.org/1999/xlink" width="460.8pt" height="345.6pt" viewBox="0 0 460.8 345.6" xmlns="http://www.w3.org/2000/svg" version="1.1">
 <metadata>
  <rdf:RDF xmlns:dc="http://purl.org/dc/elements/1.1/" xmlns:cc="http://creativecommons.org/ns#" xmlns:rdf="http://www.w3.org/1999/02/22-rdf-syntax-ns#">
   <cc:Work>
    <dc:type rdf:resource="http://purl.org/dc/dcmitype/StillImage"/>
    <dc:date>2022-06-14T15:10:03.742504</dc:date>
    <dc:format>image/svg+xml</dc:format>
    <dc:creator>
     <cc:Agent>
      <dc:title>Matplotlib v3.5.1, https://matplotlib.org/</dc:title>
     </cc:Agent>
    </dc:creator>
   </cc:Work>
  </rdf:RDF>
 </metadata>
 <defs>
  <style type="text/css">*{stroke-linejoin: round; stroke-linecap: butt}</style>
 </defs>
 <g id="figure_1">
  <g id="patch_1">
   <path d="M 0 345.6 
L 460.8 345.6 
L 460.8 0 
L 0 0 
z
" style="fill: #ffffff"/>
  </g>
  <g id="patch_2">
   <path d="M 103.104 307.584 
L 369.216 307.584 
L 369.216 41.472 
L 103.104 41.472 
z
" style="fill: #ffffff"/>
  </g>
  <g id="pane3d_1">
   <g id="patch_3">
    <path d="M 123.197291 241.969309 
L 211.076164 168.307495 
L 209.854564 62.073991 
L 117.770234 129.272941 
" style="fill: #f2f2f2; opacity: 0.5; stroke: #f2f2f2; stroke-linejoin: miter"/>
   </g>
  </g>
  <g id="pane3d_2">
   <g id="patch_4">
    <path d="M 211.076164 168.307495 
L 352.090401 209.294766 
L 357.122702 99.402171 
L 209.854564 62.073991 
" style="fill: #e6e6e6; opacity: 0.5; stroke: #e6e6e6; stroke-linejoin: miter"/>
   </g>
  </g>
  <g id="pane3d_3">
   <g id="patch_5">
    <path d="M 123.197291 241.969309 
L 272.679269 290.790123 
L 352.090401 209.294766 
L 211.076164 168.307495 
" style="fill: #ececec; opacity: 0.5; stroke: #ececec; stroke-linejoin: miter"/>
   </g>
  </g>
  <g id="axis3d_1">
   <g id="line2d_1">
    <path d="M 123.197291 241.969309 
L 272.679269 290.790123 
" style="fill: none; stroke: #000000; stroke-width: 0.8; stroke-linecap: square"/>
   </g>
   <g id="text_1">
    <!-- X -->
    <g transform="translate(176.251428 303.76759)scale(0.1 -0.1)">
     <defs>
      <path id="DejaVuSans-58" d="M 403 4666 
L 1081 4666 
L 2241 2931 
L 3406 4666 
L 4084 4666 
L 2584 2425 
L 4184 0 
L 3506 0 
L 2194 1984 
L 872 0 
L 191 0 
L 1856 2491 
L 403 4666 
z
" transform="scale(0.015625)"/>
     </defs>
     <use xlink:href="#DejaVuSans-58"/>
    </g>
   </g>
   <g id="Line3DCollection_1">
    <path d="M 133.60764 245.369329 
L 220.937212 171.173712 
L 220.132741 64.679209 
" style="fill: none; stroke: #b0b0b0; stroke-width: 0.8"/>
    <path d="M 159.963694 253.977216 
L 245.875448 178.422273 
L 246.139418 71.271144 
" style="fill: none; stroke: #b0b0b0; stroke-width: 0.8"/>
    <path d="M 186.825976 262.750437 
L 271.252715 185.798442 
L 272.623867 77.98418 
" style="fill: none; stroke: #b0b0b0; stroke-width: 0.8"/>
    <path d="M 214.209212 271.693802 
L 297.080709 193.305621 
L 299.599376 84.821685 
" style="fill: none; stroke: #b0b0b0; stroke-width: 0.8"/>
    <path d="M 242.128705 280.812309 
L 323.371546 200.947329 
L 327.07973 91.787153 
" style="fill: none; stroke: #b0b0b0; stroke-width: 0.8"/>
   </g>
   <g id="xtick_1">
    <g id="line2d_2">
     <path d="M 134.368131 244.723212 
L 132.083393 246.664337 
" style="fill: none; stroke: #000000; stroke-width: 0.8; stroke-linecap: square"/>
    </g>
    <g id="text_2">
     <!-- 1.1 -->
     <g transform="translate(118.128372 268.687853)scale(0.1 -0.1)">
      <defs>
       <path id="DejaVuSans-31" d="M 794 531 
L 1825 531 
L 1825 4091 
L 703 3866 
L 703 4441 
L 1819 4666 
L 2450 4666 
L 2450 531 
L 3481 531 
L 3481 0 
L 794 0 
L 794 531 
z
" transform="scale(0.015625)"/>
       <path id="DejaVuSans-2e" d="M 684 794 
L 1344 794 
L 1344 0 
L 684 0 
L 684 794 
z
" transform="scale(0.015625)"/>
      </defs>
      <use xlink:href="#DejaVuSans-31"/>
      <use xlink:href="#DejaVuSans-2e" x="63.623047"/>
      <use xlink:href="#DejaVuSans-31" x="95.410156"/>
     </g>
    </g>
   </g>
   <g id="xtick_2">
    <g id="line2d_3">
     <path d="M 160.712417 253.318753 
L 158.463003 255.296996 
" style="fill: none; stroke: #000000; stroke-width: 0.8; stroke-linecap: square"/>
    </g>
    <g id="text_3">
     <!-- 1.2 -->
     <g transform="translate(144.511507 277.478154)scale(0.1 -0.1)">
      <defs>
       <path id="DejaVuSans-32" d="M 1228 531 
L 3431 531 
L 3431 0 
L 469 0 
L 469 531 
Q 828 903 1448 1529 
Q 2069 2156 2228 2338 
Q 2531 2678 2651 2914 
Q 2772 3150 2772 3378 
Q 2772 3750 2511 3984 
Q 2250 4219 1831 4219 
Q 1534 4219 1204 4116 
Q 875 4013 500 3803 
L 500 4441 
Q 881 4594 1212 4672 
Q 1544 4750 1819 4750 
Q 2544 4750 2975 4387 
Q 3406 4025 3406 3419 
Q 3406 3131 3298 2873 
Q 3191 2616 2906 2266 
Q 2828 2175 2409 1742 
Q 1991 1309 1228 531 
z
" transform="scale(0.015625)"/>
      </defs>
      <use xlink:href="#DejaVuSans-31"/>
      <use xlink:href="#DejaVuSans-2e" x="63.623047"/>
      <use xlink:href="#DejaVuSans-32" x="95.410156"/>
     </g>
    </g>
   </g>
   <g id="xtick_3">
    <g id="line2d_4">
     <path d="M 187.562336 262.079271 
L 185.350033 264.095707 
" style="fill: none; stroke: #000000; stroke-width: 0.8; stroke-linecap: square"/>
    </g>
    <g id="text_4">
     <!-- 1.3 -->
     <g transform="translate(171.403312 286.437934)scale(0.1 -0.1)">
      <defs>
       <path id="DejaVuSans-33" d="M 2597 2516 
Q 3050 2419 3304 2112 
Q 3559 1806 3559 1356 
Q 3559 666 3084 287 
Q 2609 -91 1734 -91 
Q 1441 -91 1130 -33 
Q 819 25 488 141 
L 488 750 
Q 750 597 1062 519 
Q 1375 441 1716 441 
Q 2309 441 2620 675 
Q 2931 909 2931 1356 
Q 2931 1769 2642 2001 
Q 2353 2234 1838 2234 
L 1294 2234 
L 1294 2753 
L 1863 2753 
Q 2328 2753 2575 2939 
Q 2822 3125 2822 3475 
Q 2822 3834 2567 4026 
Q 2313 4219 1838 4219 
Q 1578 4219 1281 4162 
Q 984 4106 628 3988 
L 628 4550 
Q 988 4650 1302 4700 
Q 1616 4750 1894 4750 
Q 2613 4750 3031 4423 
Q 3450 4097 3450 3541 
Q 3450 3153 3228 2886 
Q 3006 2619 2597 2516 
z
" transform="scale(0.015625)"/>
      </defs>
      <use xlink:href="#DejaVuSans-31"/>
      <use xlink:href="#DejaVuSans-2e" x="63.623047"/>
      <use xlink:href="#DejaVuSans-33" x="95.410156"/>
     </g>
    </g>
   </g>
   <g id="xtick_4">
    <g id="line2d_5">
     <path d="M 214.932587 271.009561 
L 212.759265 273.065307 
" style="fill: none; stroke: #000000; stroke-width: 0.8; stroke-linecap: square"/>
    </g>
    <g id="text_5">
     <!-- 1.4 -->
     <g transform="translate(198.81864 295.57214)scale(0.1 -0.1)">
      <defs>
       <path id="DejaVuSans-34" d="M 2419 4116 
L 825 1625 
L 2419 1625 
L 2419 4116 
z
M 2253 4666 
L 3047 4666 
L 3047 1625 
L 3713 1625 
L 3713 1100 
L 3047 1100 
L 3047 0 
L 2419 0 
L 2419 1100 
L 313 1100 
L 313 1709 
L 2253 4666 
z
" transform="scale(0.015625)"/>
      </defs>
      <use xlink:href="#DejaVuSans-31"/>
      <use xlink:href="#DejaVuSans-2e" x="63.623047"/>
      <use xlink:href="#DejaVuSans-34" x="95.410156"/>
     </g>
    </g>
   </g>
   <g id="xtick_5">
    <g id="line2d_6">
     <path d="M 242.838444 280.114607 
L 240.706062 282.210824 
" style="fill: none; stroke: #000000; stroke-width: 0.8; stroke-linecap: square"/>
    </g>
    <g id="text_6">
     <!-- 1.5 -->
     <g transform="translate(226.772929 304.885917)scale(0.1 -0.1)">
      <defs>
       <path id="DejaVuSans-35" d="M 691 4666 
L 3169 4666 
L 3169 4134 
L 1269 4134 
L 1269 2991 
Q 1406 3038 1543 3061 
Q 1681 3084 1819 3084 
Q 2600 3084 3056 2656 
Q 3513 2228 3513 1497 
Q 3513 744 3044 326 
Q 2575 -91 1722 -91 
Q 1428 -91 1123 -41 
Q 819 9 494 109 
L 494 744 
Q 775 591 1075 516 
Q 1375 441 1709 441 
Q 2250 441 2565 725 
Q 2881 1009 2881 1497 
Q 2881 1984 2565 2268 
Q 2250 2553 1709 2553 
Q 1456 2553 1204 2497 
Q 953 2441 691 2322 
L 691 4666 
z
" transform="scale(0.015625)"/>
      </defs>
      <use xlink:href="#DejaVuSans-31"/>
      <use xlink:href="#DejaVuSans-2e" x="63.623047"/>
      <use xlink:href="#DejaVuSans-35" x="95.410156"/>
     </g>
    </g>
   </g>
  </g>
  <g id="axis3d_2">
   <g id="line2d_7">
    <path d="M 352.090401 209.294766 
L 272.679269 290.790123 
" style="fill: none; stroke: #000000; stroke-width: 0.8; stroke-linecap: square"/>
   </g>
   <g id="text_7">
    <!-- Z -->
    <g transform="translate(337.707782 278.988697)scale(0.1 -0.1)">
     <defs>
      <path id="DejaVuSans-5a" d="M 359 4666 
L 4025 4666 
L 4025 4184 
L 1075 531 
L 4097 531 
L 4097 0 
L 288 0 
L 288 481 
L 3238 4134 
L 359 4134 
L 359 4666 
z
" transform="scale(0.015625)"/>
     </defs>
     <use xlink:href="#DejaVuSans-5a"/>
    </g>
   </g>
   <g id="Line3DCollection_2">
    <path d="M 136.049581 115.933505 
L 140.588798 227.391403 
L 288.450711 274.604743 
" style="fill: none; stroke: #b0b0b0; stroke-width: 0.8"/>
    <path d="M 151.901679 104.365367 
L 155.692164 214.731462 
L 302.124786 260.571779 
" style="fill: none; stroke: #b0b0b0; stroke-width: 0.8"/>
    <path d="M 167.287787 93.137286 
L 170.370437 202.427842 
L 315.394116 246.954182 
" style="fill: none; stroke: #b0b0b0; stroke-width: 0.8"/>
    <path d="M 182.228158 82.234484 
L 184.641316 190.465709 
L 328.276409 233.73378 
" style="fill: none; stroke: #b0b0b0; stroke-width: 0.8"/>
    <path d="M 196.741883 71.643029 
L 198.521528 178.83104 
L 340.788356 220.893444 
" style="fill: none; stroke: #b0b0b0; stroke-width: 0.8"/>
   </g>
   <g id="xtick_6">
    <g id="line2d_8">
     <path d="M 287.205379 274.2071 
L 290.94456 275.401047 
" style="fill: none; stroke: #000000; stroke-width: 0.8; stroke-linecap: square"/>
    </g>
    <g id="text_8">
     <!-- 1.15 -->
     <g transform="translate(290.060735 295.470285)scale(0.1 -0.1)">
      <use xlink:href="#DejaVuSans-31"/>
      <use xlink:href="#DejaVuSans-2e" x="63.623047"/>
      <use xlink:href="#DejaVuSans-31" x="95.410156"/>
      <use xlink:href="#DejaVuSans-35" x="159.033203"/>
     </g>
    </g>
   </g>
   <g id="xtick_7">
    <g id="line2d_9">
     <path d="M 300.89242 260.18599 
L 304.592622 261.344328 
" style="fill: none; stroke: #000000; stroke-width: 0.8; stroke-linecap: square"/>
    </g>
    <g id="text_9">
     <!-- 1.20 -->
     <g transform="translate(303.551249 281.229721)scale(0.1 -0.1)">
      <defs>
       <path id="DejaVuSans-30" d="M 2034 4250 
Q 1547 4250 1301 3770 
Q 1056 3291 1056 2328 
Q 1056 1369 1301 889 
Q 1547 409 2034 409 
Q 2525 409 2770 889 
Q 3016 1369 3016 2328 
Q 3016 3291 2770 3770 
Q 2525 4250 2034 4250 
z
M 2034 4750 
Q 2819 4750 3233 4129 
Q 3647 3509 3647 2328 
Q 3647 1150 3233 529 
Q 2819 -91 2034 -91 
Q 1250 -91 836 529 
Q 422 1150 422 2328 
Q 422 3509 836 4129 
Q 1250 4750 2034 4750 
z
" transform="scale(0.015625)"/>
      </defs>
      <use xlink:href="#DejaVuSans-31"/>
      <use xlink:href="#DejaVuSans-2e" x="63.623047"/>
      <use xlink:href="#DejaVuSans-32" x="95.410156"/>
      <use xlink:href="#DejaVuSans-30" x="159.033203"/>
     </g>
    </g>
   </g>
   <g id="xtick_8">
    <g id="line2d_10">
     <path d="M 314.1745 246.579725 
L 317.836374 247.704024 
" style="fill: none; stroke: #000000; stroke-width: 0.8; stroke-linecap: square"/>
    </g>
    <g id="text_10">
     <!-- 1.25 -->
     <g transform="translate(316.642222 267.410912)scale(0.1 -0.1)">
      <use xlink:href="#DejaVuSans-31"/>
      <use xlink:href="#DejaVuSans-2e" x="63.623047"/>
      <use xlink:href="#DejaVuSans-32" x="95.410156"/>
      <use xlink:href="#DejaVuSans-35" x="159.033203"/>
     </g>
    </g>
   </g>
   <g id="xtick_9">
    <g id="line2d_11">
     <path d="M 327.069329 233.370164 
L 330.693521 234.461901 
" style="fill: none; stroke: #000000; stroke-width: 0.8; stroke-linecap: square"/>
    </g>
    <g id="text_11">
     <!-- 1.30 -->
     <g transform="translate(329.351145 253.995395)scale(0.1 -0.1)">
      <use xlink:href="#DejaVuSans-31"/>
      <use xlink:href="#DejaVuSans-2e" x="63.623047"/>
      <use xlink:href="#DejaVuSans-33" x="95.410156"/>
      <use xlink:href="#DejaVuSans-30" x="159.033203"/>
     </g>
    </g>
   </g>
   <g id="xtick_10">
    <g id="line2d_12">
     <path d="M 339.5936 220.540205 
L 343.180748 221.600776 
" style="fill: none; stroke: #000000; stroke-width: 0.8; stroke-linecap: square"/>
    </g>
    <g id="text_12">
     <!-- 1.35 -->
     <g transform="translate(341.694502 240.96577)scale(0.1 -0.1)">
      <use xlink:href="#DejaVuSans-31"/>
      <use xlink:href="#DejaVuSans-2e" x="63.623047"/>
      <use xlink:href="#DejaVuSans-33" x="95.410156"/>
      <use xlink:href="#DejaVuSans-35" x="159.033203"/>
     </g>
    </g>
   </g>
  </g>
  <g id="axis3d_3">
   <g id="line2d_13">
    <path d="M 352.090401 209.294766 
L 357.122702 99.402171 
" style="fill: none; stroke: #000000; stroke-width: 0.8; stroke-linecap: square"/>
   </g>
   <g id="text_13">
    <!-- Y -->
    <g transform="translate(391.873323 152.902279)scale(0.1 -0.1)">
     <defs>
      <path id="DejaVuSans-59" d="M -13 4666 
L 666 4666 
L 1959 2747 
L 3244 4666 
L 3922 4666 
L 2272 2222 
L 2272 0 
L 1638 0 
L 1638 2222 
L -13 4666 
z
" transform="scale(0.015625)"/>
     </defs>
     <use xlink:href="#DejaVuSans-59"/>
    </g>
   </g>
   <g id="Line3DCollection_3">
    <path d="M 352.90133 191.586142 
L 210.878961 151.158177 
L 122.323985 223.834543 
" style="fill: none; stroke: #b0b0b0; stroke-width: 0.8"/>
    <path d="M 353.745051 173.161432 
L 210.673926 133.32778 
L 121.414861 204.956001 
" style="fill: none; stroke: #b0b0b0; stroke-width: 0.8"/>
    <path d="M 354.60145 154.459872 
L 210.465958 115.24237 
L 120.491552 185.782875 
" style="fill: none; stroke: #b0b0b0; stroke-width: 0.8"/>
    <path d="M 355.470814 135.475175 
L 210.254994 96.896439 
L 119.553721 166.308215 
" style="fill: none; stroke: #b0b0b0; stroke-width: 0.8"/>
    <path d="M 356.353441 116.200862 
L 210.04097 78.284316 
L 118.601024 146.524851 
" style="fill: none; stroke: #b0b0b0; stroke-width: 0.8"/>
   </g>
   <g id="xtick_11">
    <g id="line2d_14">
     <path d="M 351.708968 191.246726 
L 355.288909 192.265788 
" style="fill: none; stroke: #000000; stroke-width: 0.8; stroke-linecap: square"/>
    </g>
    <g id="text_14">
     <!-- −0.85 -->
     <g transform="translate(355.956201 196.61431)scale(0.1 -0.1)">
      <defs>
       <path id="DejaVuSans-2212" d="M 678 2272 
L 4684 2272 
L 4684 1741 
L 678 1741 
L 678 2272 
z
" transform="scale(0.015625)"/>
       <path id="DejaVuSans-38" d="M 2034 2216 
Q 1584 2216 1326 1975 
Q 1069 1734 1069 1313 
Q 1069 891 1326 650 
Q 1584 409 2034 409 
Q 2484 409 2743 651 
Q 3003 894 3003 1313 
Q 3003 1734 2745 1975 
Q 2488 2216 2034 2216 
z
M 1403 2484 
Q 997 2584 770 2862 
Q 544 3141 544 3541 
Q 544 4100 942 4425 
Q 1341 4750 2034 4750 
Q 2731 4750 3128 4425 
Q 3525 4100 3525 3541 
Q 3525 3141 3298 2862 
Q 3072 2584 2669 2484 
Q 3125 2378 3379 2068 
Q 3634 1759 3634 1313 
Q 3634 634 3220 271 
Q 2806 -91 2034 -91 
Q 1263 -91 848 271 
Q 434 634 434 1313 
Q 434 1759 690 2068 
Q 947 2378 1403 2484 
z
M 1172 3481 
Q 1172 3119 1398 2916 
Q 1625 2713 2034 2713 
Q 2441 2713 2670 2916 
Q 2900 3119 2900 3481 
Q 2900 3844 2670 4047 
Q 2441 4250 2034 4250 
Q 1625 4250 1398 4047 
Q 1172 3844 1172 3481 
z
" transform="scale(0.015625)"/>
      </defs>
      <use xlink:href="#DejaVuSans-2212"/>
      <use xlink:href="#DejaVuSans-30" x="83.789062"/>
      <use xlink:href="#DejaVuSans-2e" x="147.412109"/>
      <use xlink:href="#DejaVuSans-38" x="179.199219"/>
      <use xlink:href="#DejaVuSans-35" x="242.822266"/>
     </g>
    </g>
   </g>
   <g id="xtick_12">
    <g id="line2d_15">
     <path d="M 352.543463 172.826887 
L 356.151127 173.831328 
" style="fill: none; stroke: #000000; stroke-width: 0.8; stroke-linecap: square"/>
    </g>
    <g id="text_15">
     <!-- −0.80 -->
     <g transform="translate(356.933979 178.226544)scale(0.1 -0.1)">
      <use xlink:href="#DejaVuSans-2212"/>
      <use xlink:href="#DejaVuSans-30" x="83.789062"/>
      <use xlink:href="#DejaVuSans-2e" x="147.412109"/>
      <use xlink:href="#DejaVuSans-38" x="179.199219"/>
      <use xlink:href="#DejaVuSans-30" x="242.822266"/>
     </g>
    </g>
   </g>
   <g id="xtick_13">
    <g id="line2d_16">
     <path d="M 353.390491 154.130385 
L 357.026312 155.119647 
" style="fill: none; stroke: #000000; stroke-width: 0.8; stroke-linecap: square"/>
    </g>
    <g id="text_16">
     <!-- −0.75 -->
     <g transform="translate(357.926404 159.563331)scale(0.1 -0.1)">
      <defs>
       <path id="DejaVuSans-37" d="M 525 4666 
L 3525 4666 
L 3525 4397 
L 1831 0 
L 1172 0 
L 2766 4134 
L 525 4134 
L 525 4666 
z
" transform="scale(0.015625)"/>
      </defs>
      <use xlink:href="#DejaVuSans-2212"/>
      <use xlink:href="#DejaVuSans-30" x="83.789062"/>
      <use xlink:href="#DejaVuSans-2e" x="147.412109"/>
      <use xlink:href="#DejaVuSans-37" x="179.199219"/>
      <use xlink:href="#DejaVuSans-35" x="242.822266"/>
     </g>
    </g>
   </g>
   <g id="xtick_14">
    <g id="line2d_17">
     <path d="M 354.250338 135.150937 
L 357.914757 136.124444 
" style="fill: none; stroke: #000000; stroke-width: 0.8; stroke-linecap: square"/>
    </g>
    <g id="text_17">
     <!-- −0.70 -->
     <g transform="translate(358.933808 140.618433)scale(0.1 -0.1)">
      <use xlink:href="#DejaVuSans-2212"/>
      <use xlink:href="#DejaVuSans-30" x="83.789062"/>
      <use xlink:href="#DejaVuSans-2e" x="147.412109"/>
      <use xlink:href="#DejaVuSans-37" x="179.199219"/>
      <use xlink:href="#DejaVuSans-30" x="242.822266"/>
     </g>
    </g>
   </g>
   <g id="xtick_15">
    <g id="line2d_18">
     <path d="M 355.123296 115.882073 
L 358.816767 116.839227 
" style="fill: none; stroke: #000000; stroke-width: 0.8; stroke-linecap: square"/>
    </g>
    <g id="text_18">
     <!-- −0.65 -->
     <g transform="translate(359.956532 121.385426)scale(0.1 -0.1)">
      <defs>
       <path id="DejaVuSans-36" d="M 2113 2584 
Q 1688 2584 1439 2293 
Q 1191 2003 1191 1497 
Q 1191 994 1439 701 
Q 1688 409 2113 409 
Q 2538 409 2786 701 
Q 3034 994 3034 1497 
Q 3034 2003 2786 2293 
Q 2538 2584 2113 2584 
z
M 3366 4563 
L 3366 3988 
Q 3128 4100 2886 4159 
Q 2644 4219 2406 4219 
Q 1781 4219 1451 3797 
Q 1122 3375 1075 2522 
Q 1259 2794 1537 2939 
Q 1816 3084 2150 3084 
Q 2853 3084 3261 2657 
Q 3669 2231 3669 1497 
Q 3669 778 3244 343 
Q 2819 -91 2113 -91 
Q 1303 -91 875 529 
Q 447 1150 447 2328 
Q 447 3434 972 4092 
Q 1497 4750 2381 4750 
Q 2619 4750 2861 4703 
Q 3103 4656 3366 4563 
z
" transform="scale(0.015625)"/>
      </defs>
      <use xlink:href="#DejaVuSans-2212"/>
      <use xlink:href="#DejaVuSans-30" x="83.789062"/>
      <use xlink:href="#DejaVuSans-2e" x="147.412109"/>
      <use xlink:href="#DejaVuSans-36" x="179.199219"/>
      <use xlink:href="#DejaVuSans-35" x="242.822266"/>
     </g>
    </g>
   </g>
  </g>
  <g id="axes_1">
   <g id="Path3DCollection_1">
    <defs>
     <path id="C0_0_266cc265f9" d="M 0 1.118034 
C 0.296506 1.118034 0.580908 1.000231 0.790569 0.790569 
C 1.000231 0.580908 1.118034 0.296506 1.118034 -0 
C 1.118034 -0.296506 1.000231 -0.580908 0.790569 -0.790569 
C 0.580908 -1.000231 0.296506 -1.118034 0 -1.118034 
C -0.296506 -1.118034 -0.580908 -1.000231 -0.790569 -0.790569 
C -1.000231 -0.580908 -1.118034 -0.296506 -1.118034 0 
C -1.118034 0.296506 -1.000231 0.580908 -0.790569 0.790569 
C -0.580908 1.000231 -0.296506 1.118034 0 1.118034 
z
"/>
    </defs>
    <g clip-path="url(#pc2cd15d69f)">
     <use xlink:href="#C0_0_266cc265f9" x="278.292108" y="109.856215" style="fill: #ff0000; fill-opacity: 0.3; stroke: #ff0000; stroke-opacity: 0.3"/>
    </g>
    <g clip-path="url(#pc2cd15d69f)">
     <use xlink:href="#C0_0_266cc265f9" x="172.688313" y="162.786879" style="fill: #ff0000; fill-opacity: 0.397108; stroke: #ff0000; stroke-opacity: 0.397108"/>
    </g>
    <g clip-path="url(#pc2cd15d69f)">
     <use xlink:href="#C0_0_266cc265f9" x="282.582544" y="116.558106" style="fill: #ff0000; fill-opacity: 0.402395; stroke: #ff0000; stroke-opacity: 0.402395"/>
    </g>
    <g clip-path="url(#pc2cd15d69f)">
     <use xlink:href="#C0_0_266cc265f9" x="164.937401" y="173.0897" style="fill: #ff0000; fill-opacity: 0.405027; stroke: #ff0000; stroke-opacity: 0.405027"/>
    </g>
    <g clip-path="url(#pc2cd15d69f)">
     <use xlink:href="#C0_0_266cc265f9" x="190.877018" y="149.374544" style="fill: #ff0000; fill-opacity: 0.405268; stroke: #ff0000; stroke-opacity: 0.405268"/>
    </g>
    <g clip-path="url(#pc2cd15d69f)">
     <use xlink:href="#C0_0_266cc265f9" x="211.259707" y="137.819653" style="fill: #ff0000; fill-opacity: 0.414399; stroke: #ff0000; stroke-opacity: 0.414399"/>
    </g>
    <g clip-path="url(#pc2cd15d69f)">
     <use xlink:href="#C0_0_266cc265f9" x="234.221797" y="128.26474" style="fill: #ff0000; fill-opacity: 0.425684; stroke: #ff0000; stroke-opacity: 0.425684"/>
    </g>
    <g clip-path="url(#pc2cd15d69f)">
     <use xlink:href="#C0_0_266cc265f9" x="158.700516" y="191.616753" style="fill: #ff0000; fill-opacity: 0.435729; stroke: #ff0000; stroke-opacity: 0.435729"/>
    </g>
    <g clip-path="url(#pc2cd15d69f)">
     <use xlink:href="#C0_0_266cc265f9" x="279.256449" y="118.539775" style="fill: #ff0000; fill-opacity: 0.445611; stroke: #ff0000; stroke-opacity: 0.445611"/>
    </g>
    <g clip-path="url(#pc2cd15d69f)">
     <use xlink:href="#C0_0_266cc265f9" x="254.454681" y="122.430387" style="fill: #ff0000; fill-opacity: 0.448504; stroke: #ff0000; stroke-opacity: 0.448504"/>
    </g>
    <g clip-path="url(#pc2cd15d69f)">
     <use xlink:href="#C0_0_266cc265f9" x="269.52401" y="120.257057" style="fill: #ff0000; fill-opacity: 0.463576; stroke: #ff0000; stroke-opacity: 0.463576"/>
    </g>
    <g clip-path="url(#pc2cd15d69f)">
     <use xlink:href="#C0_0_266cc265f9" x="157.407665" y="205.551491" style="fill: #ff0000; fill-opacity: 0.466985; stroke: #ff0000; stroke-opacity: 0.466985"/>
    </g>
    <g clip-path="url(#pc2cd15d69f)">
     <use xlink:href="#C0_0_266cc265f9" x="160.874012" y="223.918463" style="fill: #ff0000; fill-opacity: 0.532711; stroke: #ff0000; stroke-opacity: 0.532711"/>
    </g>
    <g clip-path="url(#pc2cd15d69f)">
     <use xlink:href="#C0_0_266cc265f9" x="252.040908" y="118.177419" style="fill: #ff0000; fill-opacity: 0.556559; stroke: #ff0000; stroke-opacity: 0.556559"/>
    </g>
    <g clip-path="url(#pc2cd15d69f)">
     <use xlink:href="#C0_0_266cc265f9" x="168.372027" y="236.304175" style="fill: #ff0000; fill-opacity: 0.60885; stroke: #ff0000; stroke-opacity: 0.60885"/>
    </g>
    <g clip-path="url(#pc2cd15d69f)">
     <use xlink:href="#C0_0_266cc265f9" x="263.741527" y="117.364858" style="fill: #ff0000; fill-opacity: 0.612392; stroke: #ff0000; stroke-opacity: 0.612392"/>
    </g>
    <g clip-path="url(#pc2cd15d69f)">
     <use xlink:href="#C0_0_266cc265f9" x="275.468376" y="117.269374" style="fill: #ff0000; fill-opacity: 0.684167; stroke: #ff0000; stroke-opacity: 0.684167"/>
    </g>
    <g clip-path="url(#pc2cd15d69f)">
     <use xlink:href="#C0_0_266cc265f9" x="180.586296" y="246.434331" style="fill: #ff0000; fill-opacity: 0.685278; stroke: #ff0000; stroke-opacity: 0.685278"/>
    </g>
    <g clip-path="url(#pc2cd15d69f)">
     <use xlink:href="#C0_0_266cc265f9" x="196.798222" y="251.45872" style="fill: #ff0000; fill-opacity: 0.749994; stroke: #ff0000; stroke-opacity: 0.749994"/>
    </g>
    <g clip-path="url(#pc2cd15d69f)">
     <use xlink:href="#C0_0_266cc265f9" x="286.849303" y="122.128969" style="fill: #ff0000; fill-opacity: 0.775634; stroke: #ff0000; stroke-opacity: 0.775634"/>
    </g>
    <g clip-path="url(#pc2cd15d69f)">
     <use xlink:href="#C0_0_266cc265f9" x="213.045147" y="253.195071" style="fill: #ff0000; fill-opacity: 0.809871; stroke: #ff0000; stroke-opacity: 0.809871"/>
    </g>
    <g clip-path="url(#pc2cd15d69f)">
     <use xlink:href="#C0_0_266cc265f9" x="296.997533" y="133.174998" style="fill: #ff0000; fill-opacity: 0.852919; stroke: #ff0000; stroke-opacity: 0.852919"/>
    </g>
    <g clip-path="url(#pc2cd15d69f)">
     <use xlink:href="#C0_0_266cc265f9" x="233.424007" y="249.401601" style="fill: #ff0000; fill-opacity: 0.870433; stroke: #ff0000; stroke-opacity: 0.870433"/>
    </g>
    <g clip-path="url(#pc2cd15d69f)">
     <use xlink:href="#C0_0_266cc265f9" x="301.045815" y="155.756214" style="fill: #ff0000; fill-opacity: 0.927865; stroke: #ff0000; stroke-opacity: 0.927865"/>
    </g>
    <g clip-path="url(#pc2cd15d69f)">
     <use xlink:href="#C0_0_266cc265f9" x="249.120492" y="242.789282" style="fill: #ff0000; fill-opacity: 0.935634; stroke: #ff0000; stroke-opacity: 0.935634"/>
    </g>
    <g clip-path="url(#pc2cd15d69f)">
     <use xlink:href="#C0_0_266cc265f9" x="299.024934" y="177.257302" style="fill: #ff0000; fill-opacity: 0.970171; stroke: #ff0000; stroke-opacity: 0.970171"/>
    </g>
    <g clip-path="url(#pc2cd15d69f)">
     <use xlink:href="#C0_0_266cc265f9" x="265.820218" y="231.172411" style="fill: #ff0000; fill-opacity: 0.97415; stroke: #ff0000; stroke-opacity: 0.97415"/>
    </g>
    <g clip-path="url(#pc2cd15d69f)">
     <use xlink:href="#C0_0_266cc265f9" x="291.907043" y="196.690521" style="fill: #ff0000; fill-opacity: 0.997305; stroke: #ff0000; stroke-opacity: 0.997305"/>
    </g>
    <g clip-path="url(#pc2cd15d69f)">
     <use xlink:href="#C0_0_266cc265f9" x="280.603533" y="214.921816" style="fill: #ff0000; stroke: #ff0000"/>
    </g>
   </g>
   <g id="text_19">
    <!-- out_20170919_010635_555719_pose -->
    <g transform="translate(123.68625 35.472)scale(0.12 -0.12)">
     <defs>
      <path id="DejaVuSans-6f" d="M 1959 3097 
Q 1497 3097 1228 2736 
Q 959 2375 959 1747 
Q 959 1119 1226 758 
Q 1494 397 1959 397 
Q 2419 397 2687 759 
Q 2956 1122 2956 1747 
Q 2956 2369 2687 2733 
Q 2419 3097 1959 3097 
z
M 1959 3584 
Q 2709 3584 3137 3096 
Q 3566 2609 3566 1747 
Q 3566 888 3137 398 
Q 2709 -91 1959 -91 
Q 1206 -91 779 398 
Q 353 888 353 1747 
Q 353 2609 779 3096 
Q 1206 3584 1959 3584 
z
" transform="scale(0.015625)"/>
      <path id="DejaVuSans-75" d="M 544 1381 
L 544 3500 
L 1119 3500 
L 1119 1403 
Q 1119 906 1312 657 
Q 1506 409 1894 409 
Q 2359 409 2629 706 
Q 2900 1003 2900 1516 
L 2900 3500 
L 3475 3500 
L 3475 0 
L 2900 0 
L 2900 538 
Q 2691 219 2414 64 
Q 2138 -91 1772 -91 
Q 1169 -91 856 284 
Q 544 659 544 1381 
z
M 1991 3584 
L 1991 3584 
z
" transform="scale(0.015625)"/>
      <path id="DejaVuSans-74" d="M 1172 4494 
L 1172 3500 
L 2356 3500 
L 2356 3053 
L 1172 3053 
L 1172 1153 
Q 1172 725 1289 603 
Q 1406 481 1766 481 
L 2356 481 
L 2356 0 
L 1766 0 
Q 1100 0 847 248 
Q 594 497 594 1153 
L 594 3053 
L 172 3053 
L 172 3500 
L 594 3500 
L 594 4494 
L 1172 4494 
z
" transform="scale(0.015625)"/>
      <path id="DejaVuSans-5f" d="M 3263 -1063 
L 3263 -1509 
L -63 -1509 
L -63 -1063 
L 3263 -1063 
z
" transform="scale(0.015625)"/>
      <path id="DejaVuSans-39" d="M 703 97 
L 703 672 
Q 941 559 1184 500 
Q 1428 441 1663 441 
Q 2288 441 2617 861 
Q 2947 1281 2994 2138 
Q 2813 1869 2534 1725 
Q 2256 1581 1919 1581 
Q 1219 1581 811 2004 
Q 403 2428 403 3163 
Q 403 3881 828 4315 
Q 1253 4750 1959 4750 
Q 2769 4750 3195 4129 
Q 3622 3509 3622 2328 
Q 3622 1225 3098 567 
Q 2575 -91 1691 -91 
Q 1453 -91 1209 -44 
Q 966 3 703 97 
z
M 1959 2075 
Q 2384 2075 2632 2365 
Q 2881 2656 2881 3163 
Q 2881 3666 2632 3958 
Q 2384 4250 1959 4250 
Q 1534 4250 1286 3958 
Q 1038 3666 1038 3163 
Q 1038 2656 1286 2365 
Q 1534 2075 1959 2075 
z
" transform="scale(0.015625)"/>
      <path id="DejaVuSans-70" d="M 1159 525 
L 1159 -1331 
L 581 -1331 
L 581 3500 
L 1159 3500 
L 1159 2969 
Q 1341 3281 1617 3432 
Q 1894 3584 2278 3584 
Q 2916 3584 3314 3078 
Q 3713 2572 3713 1747 
Q 3713 922 3314 415 
Q 2916 -91 2278 -91 
Q 1894 -91 1617 61 
Q 1341 213 1159 525 
z
M 3116 1747 
Q 3116 2381 2855 2742 
Q 2594 3103 2138 3103 
Q 1681 3103 1420 2742 
Q 1159 2381 1159 1747 
Q 1159 1113 1420 752 
Q 1681 391 2138 391 
Q 2594 391 2855 752 
Q 3116 1113 3116 1747 
z
" transform="scale(0.015625)"/>
      <path id="DejaVuSans-73" d="M 2834 3397 
L 2834 2853 
Q 2591 2978 2328 3040 
Q 2066 3103 1784 3103 
Q 1356 3103 1142 2972 
Q 928 2841 928 2578 
Q 928 2378 1081 2264 
Q 1234 2150 1697 2047 
L 1894 2003 
Q 2506 1872 2764 1633 
Q 3022 1394 3022 966 
Q 3022 478 2636 193 
Q 2250 -91 1575 -91 
Q 1294 -91 989 -36 
Q 684 19 347 128 
L 347 722 
Q 666 556 975 473 
Q 1284 391 1588 391 
Q 1994 391 2212 530 
Q 2431 669 2431 922 
Q 2431 1156 2273 1281 
Q 2116 1406 1581 1522 
L 1381 1569 
Q 847 1681 609 1914 
Q 372 2147 372 2553 
Q 372 3047 722 3315 
Q 1072 3584 1716 3584 
Q 2034 3584 2315 3537 
Q 2597 3491 2834 3397 
z
" transform="scale(0.015625)"/>
      <path id="DejaVuSans-65" d="M 3597 1894 
L 3597 1613 
L 953 1613 
Q 991 1019 1311 708 
Q 1631 397 2203 397 
Q 2534 397 2845 478 
Q 3156 559 3463 722 
L 3463 178 
Q 3153 47 2828 -22 
Q 2503 -91 2169 -91 
Q 1331 -91 842 396 
Q 353 884 353 1716 
Q 353 2575 817 3079 
Q 1281 3584 2069 3584 
Q 2775 3584 3186 3129 
Q 3597 2675 3597 1894 
z
M 3022 2063 
Q 3016 2534 2758 2815 
Q 2500 3097 2075 3097 
Q 1594 3097 1305 2825 
Q 1016 2553 972 2059 
L 3022 2063 
z
" transform="scale(0.015625)"/>
     </defs>
     <use xlink:href="#DejaVuSans-6f"/>
     <use xlink:href="#DejaVuSans-75" x="61.181641"/>
     <use xlink:href="#DejaVuSans-74" x="124.560547"/>
     <use xlink:href="#DejaVuSans-5f" x="163.769531"/>
     <use xlink:href="#DejaVuSans-32" x="213.769531"/>
     <use xlink:href="#DejaVuSans-30" x="277.392578"/>
     <use xlink:href="#DejaVuSans-31" x="341.015625"/>
     <use xlink:href="#DejaVuSans-37" x="404.638672"/>
     <use xlink:href="#DejaVuSans-30" x="468.261719"/>
     <use xlink:href="#DejaVuSans-39" x="531.884766"/>
     <use xlink:href="#DejaVuSans-31" x="595.507812"/>
     <use xlink:href="#DejaVuSans-39" x="659.130859"/>
     <use xlink:href="#DejaVuSans-5f" x="722.753906"/>
     <use xlink:href="#DejaVuSans-30" x="772.753906"/>
     <use xlink:href="#DejaVuSans-31" x="836.376953"/>
     <use xlink:href="#DejaVuSans-30" x="900"/>
     <use xlink:href="#DejaVuSans-36" x="963.623047"/>
     <use xlink:href="#DejaVuSans-33" x="1027.246094"/>
     <use xlink:href="#DejaVuSans-35" x="1090.869141"/>
     <use xlink:href="#DejaVuSans-5f" x="1154.492188"/>
     <use xlink:href="#DejaVuSans-35" x="1204.492188"/>
     <use xlink:href="#DejaVuSans-35" x="1268.115234"/>
     <use xlink:href="#DejaVuSans-35" x="1331.738281"/>
     <use xlink:href="#DejaVuSans-37" x="1395.361328"/>
     <use xlink:href="#DejaVuSans-31" x="1458.984375"/>
     <use xlink:href="#DejaVuSans-39" x="1522.607422"/>
     <use xlink:href="#DejaVuSans-5f" x="1586.230469"/>
     <use xlink:href="#DejaVuSans-70" x="1636.230469"/>
     <use xlink:href="#DejaVuSans-6f" x="1699.707031"/>
     <use xlink:href="#DejaVuSans-73" x="1760.888672"/>
     <use xlink:href="#DejaVuSans-65" x="1812.988281"/>
    </g>
   </g>
  </g>
 </g>
 <defs>
  <clipPath id="pc2cd15d69f">
   <rect x="103.104" y="41.472" width="266.112" height="266.112"/>
  </clipPath>
 </defs>
</svg>
